PathFileType	4	(X/Y/Z)	C:/Users/beibeiliu/ov580/test_trc\sequence.21_training_dense_left.trc
DataRate	CameraRate	NumFrames	NumMarkers	Units	OrigDataRate	OrigDataStartFrame	OrigNumFrames
120	120	12	19	mm	120	348	397
Frame#	Time	ThumbCMC			ThumbMCP			ThumbIP			ThumbTip			IndexMCP			IndexPIP			IndexTip			MiddleMCP			MiddlePIP			MiddleTip			RingMCP			RingPIP			RingTip			PinkyMCP			PinkyPIP			PinkyTip			BackHand1			BackHand2			BackHand3	
		X0	Y0	Z0	X1	Y1	Z1	X2	Y2	Z2	X3	Y3	Z3	X4	Y4	Z4	X5	Y5	Z5	X6	Y6	Z6	X7	Y7	Z7	X8	Y8	Z8	X9	Y9	Z9	X10	Y10	Z10	X11	Y11	Z11	X12	Y12	Z12	X13	Y13	Z13	X14	Y14	Z14	X15	Y15	Z15	X16	Y16	Z16	X17	Y17	Z17	X18	Y18	Z18	
347	2.89167	-270.361	12.175	22.9504	-273.327	40.1855	1.25505	-254.76	50.7177	-14.0567	-229.697	49.1106	-14.8038	-265.655	18.1249	-40.9757	-269.409	29.7646	-60.4184	-276.974	41.7089	-77.8546	-246.414	20.2329	-47.4003	-241.899	36.5473	-69.6645	-243.607	54.9051	-88.3508	-221.583	23.258	-40.9952	-219.889	35.035	-56.3935	-223.231	52.2681	-75.2664	-203.047	24.7436	-23.9258	-198.712	36.1289	-39.6015	-191.554	45.8234	-54.8073	-227.569	-3.54012	-2.64535	-228.141	-13.6003	21.4148	-254.734	-8.96274	6.7635	
348	2.9	-268.339	13.001	26.5886	-275.712	41.0599	2.79316	-258.295	48.6362	-12.6429	-234.284	50.0229	-17.6646	-270.05	15.8822	-40.7373	-272.258	26.8714	-61.458	-278.243	37.169	-81.3683	-249.094	18.0079	-49.8184	-248.069	31.6147	-71.4797	-244.693	46.7087	-91.6838	-222.792	18.288	-39.6987	-225.3	29.1152	-59.998	-222.062	45.5988	-80.0237	-204.229	20.76	-24.6302	-199.225	30.0233	-39.8356	-192.239	40.9625	-58.5552	-228.187	-5.81972	0.516479	-228.811	-13.2686	23.5751	-250.963	-11.4328	10.6618	
349	2.90833	-268.405	16.5284	27.5902	-271.95	39.2613	3.34577	-254.489	47.1973	-17.4929	-227.909	45.7073	-23.5785	-269.678	12.9381	-38.0343	-276.473	22.3873	-57.2778	-282.957	31.6612	-81.31	-246.729	12.2492	-47.2934	-251.101	22.5666	-68.3334	-253.773	38.7269	-94.1437	-228.183	13.2993	-41.8503	-228.199	23.9864	-63.4263	-230.303	34.3099	-80.0053	-205.741	16.4409	-31.4443	-203.422	23.2084	-44.4823	-197.957	29.651	-61.4561	-225.255	-7.81054	1.19877	-227.267	-14.6951	24.2322	-251.229	-9.14751	12.2228	
350	2.91667	-267.328	22.1582	29.2021	-270.621	44.8562	2.53492	-256.015	49.2379	-16.8256	-230.797	45.4832	-24.7969	-275.675	14.4517	-40.264	-277.332	21.0326	-58.2382	-284.694	29.753	-81.2161	-252.075	10.9173	-49.43	-253.596	19.6412	-71.0799	-255.013	30.4701	-95.7311	-234.019	9.05091	-38.8428	-232.569	17.1702	-65.9651	-234.155	25.5904	-84.7808	-208.1	9.23036	-27.7407	-203.811	16.8955	-48.6141	-197.243	20.8002	-67.3324	-230.59	-5.32356	-0.828853	-232.44	-12.8929	24.9733	-253.051	-8.69298	17.598	
351	2.925	-266.33	28.0111	29.014	-266.692	50.993	1.20153	-250.45	51.445	-20.7067	-228.437	42.4042	-26.7791	-279.249	18.6633	-35.6353	-281.853	23.833	-53.66	-288.833	32.8007	-79.66	-253.542	9.36266	-45.8952	-260.872	16.0527	-67.1387	-255.321	23.0528	-92.358	-233.065	5.13475	-43.4348	-233.698	10.6031	-65.6663	-232.551	16.2646	-82.9429	-213.117	5.05425	-29.546	-209.051	8.54325	-47.0135	-199.615	11.2158	-65.4203	-234.676	-6.27248	5.42313	-230.265	-10.4408	25.3491	-258.165	-3.57296	18.6126	
352	2.93333	-259.787	34.561	29.4229	-259.538	56.0321	3.337	-244.353	50.203	-22.6125	-225.105	40.4381	-26.6675	-280.247	24.3306	-31.7207	-288.128	32.0607	-55.0037	-288.364	36.6124	-76.5493	-259.536	10.5718	-41.1479	-262.17	14.8145	-64.9795	-264.917	24.1989	-94.3606	-237.584	3.09099	-43.2613	-241.356	7.54743	-61.5983	-242.39	12.7959	-83.6883	-213.822	-1.87781	-33.6	-212.384	2.24216	-49.803	-206.639	0.777084	-67.2112	-237.109	-8.01317	2.22554	-230.739	-9.89619	29.4996	-256.463	0.250682	21.6043	
353	2.94167	-253.029	40.0944	27.3968	-249.098	60.2746	2.86825	-238.673	52.397	-22.4888	-222	39.3546	-29.4493	-278.428	30.4753	-33.0168	-285.54	38.9666	-53.7688	-291.444	48.5406	-71.3501	-266.29	15.8116	-43.2943	-269.317	21.4667	-66.5501	-268.911	24.3898	-91.6211	-243.334	3.26315	-38.373	-249.775	7.01879	-61.8715	-251.27	10.913	-79.6627	-220.116	-6.02672	-33.3245	-221.172	-2.82571	-51.431	-214.989	-6.48363	-66.8767	-241.594	-3.21131	3.62535	-237.437	-5.89601	30.4883	-260.425	8.4841	21.0861	
354	2.95	-246.854	48.3177	31.3674	-241.267	65.195	0.266147	-233.523	55.9146	-23.2941	-219.308	34.9491	-31.0334	-278.167	40.617	-26.7181	-284.445	48.535	-48.5976	-289.76	58.5334	-65.3344	-265.49	18.4575	-36.8824	-273.412	25.1793	-62.7685	-274.42	28.3217	-86.442	-250.677	7.02352	-36.4041	-256.751	10.3019	-58.9798	-257.8	12.3516	-80.0913	-229.88	-3.77594	-29.701	-227.269	-7.44476	-51.7625	-229.774	-8.35272	-67.5324	-245.685	-1.27157	8.2703	-237.99	-7.26336	33.4695	-256.278	14.9643	26.1789	
355	2.95833	-237.997	50.3689	32.9821	-231.872	67.7038	1.61376	-228.22	56.0471	-24.5577	-217.646	37.7986	-34.6381	-274.05	47.885	-24.46	-281.72	56.8322	-46.1415	-286.825	67.9811	-59.9608	-269.012	24.6812	-37.093	-276.508	31.8848	-57.0883	-278.539	33.9479	-81.6337	-253.528	9.19085	-32.8282	-262.25	13.8148	-56.2768	-265.728	17.9744	-74.0529	-235.245	-5.66309	-32.2899	-237.876	-3.67508	-50.581	-238.275	-10.1535	-67.3005	-244.118	-0.879856	8.55991	-240.926	-1.80383	32.9072	-257.711	21.8434	25.9997	
356	2.96667	-230.346	52.5764	33.1503	-223.38	65.5085	1.76014	-221.122	56.853	-19.9264	-216.674	32.7597	-36.9732	-269.905	58.028	-21.1041	-275.772	66.0943	-37.3988	-281.751	75.4439	-60.2977	-269.583	33.4211	-30.2144	-277.263	39.8969	-53.9219	-283.508	45.1121	-79.7368	-259.746	18.2582	-29.9094	-268.413	21.4411	-52.6096	-272.556	23.0143	-73.5191	-244.825	0.433797	-29.5887	-248.544	0.0720787	-48.2512	-253.01	-2.92399	-65.4795	-246.047	4.69823	9.34445	-239.206	1.956	36.2647	-254.653	27.8851	30.121	
357	2.975	-219.695	52.9074	33.6887	-211.828	67.2529	2.51449	-216.51	56.1933	-25.0628	-216.425	34.0656	-34.3024	-262.478	64.0249	-17.277	-268.093	75.7627	-34.4767	-273.561	83.6068	-52.9962	-266.444	45.1711	-25.4653	-275.705	50.3583	-47.348	-285.719	58.6092	-73.8892	-261.442	24.629	-27.4304	-270.693	27.3848	-48.1949	-278.428	35.9072	-67.2396	-249.383	5.49826	-27.5963	-254.315	4.57478	-42.3771	-261.42	2.32695	-64.4804	-247.238	9.11644	13.8716	-239.762	2.59309	35.4305	-247.774	29.9899	32.4099	
358	2.98333	-210.984	53.1504	33.8879	-202.874	63.8567	0.66598	-210.136	54.8293	-23.1614	-216.51	32.3198	-35.5936	-254.217	71.7518	-12.4788	-260.317	79.6438	-31.8153	-265.671	93.6401	-51.5774	-266.288	51.7294	-26.3479	-274.349	60.453	-45.6067	-283.343	66.0622	-67.015	-264.036	28.273	-28.5586	-271.331	32.8974	-44.5845	-280.771	40.6928	-65.0221	-254.044	5.98565	-25.8442	-260.988	6.72765	-43.3995	-270.046	12.0961	-56.7117	-249.671	16.7592	12.857	-241.678	4.8835	35.3994	-241.271	37.3576	34.3113	
